# xmcd CD database file generated by Grip 3.3.1
# 
# Track frame offsets:
#       150
#       19690
#       40570
#       54760
#       68657
#       85512
#       99230
#       103620
#       119682
#       131605
#       147892
#       164417
#       180385
# 
# Disc length: 2714 seconds
# 
# Revision: 3
# Processed by: cddbd v1.5.2PL0 Copyright (c) Steve Scherf et al.
# Submitted via: Grip 3.3.1
# 
DISCID=9a0a980d
DTITLE=Steve Goodman - Somebody Else's Troubles
DYEAR=1973
DGENRE=Folk
TTITLE0=The Dutchman
TTITLE1=Six Hours Ahead of the Sun
TTITLE2=Song for David
TTITLE3=Chicken Cordon Blues
TTITLE4=Somebody Else's Troubles
TTITLE5=The Loving of the Game
TTITLE6=I Ain't Heard You Play No Blues
TTITLE7=Don't Do Me Any Favors Anymore
TTITLE8=The Vegetable Song (The Barnyard Dance)
TTITLE9=Lincoln Park Pirates
TTITLE10=The Ballad of Penny Evans
TTITLE11=I'm My Own Grandpa
TTITLE12=The Auctioneer
EXTD=YEAR: 1990 ID3G:  80
EXTT0=
EXTT1=
EXTT2=
EXTT3=
EXTT4=
EXTT5=
EXTT6=
EXTT7=
EXTT8=
EXTT9=
EXTT10=
EXTT11=
EXTT12=
PLAYORDER=
